<svg width="342" height="384" viewBox="0 0 342 384" fill="none" xmlns="http://www.w3.org/2000/svg">
<path d="M83.5 191.5C83.5 297.263 293.382 383 189 383C84.6182 383 0 297.263 0 191.5C0 85.7375 84.6182 0 189 0C293.382 0 83.5 85.7375 83.5 191.5Z" fill="#232323"/>
<path d="M154.862 190.168C154.862 257.282 229.1 330 154.862 330C80.6238 330 44 252.288 44 185.174C44 118.059 101.41 52 175.649 52C249.887 52 154.862 123.053 154.862 190.168Z" fill="#D9D9D9"/>
<path d="M139.064 183.88C139.064 229.342 195.3 278.6 139.064 278.6C82.8287 278.6 55.0862 225.959 55.0862 180.497C55.0862 135.035 98.5746 90.2874 154.81 90.2874C211.045 90.2874 139.064 138.418 139.064 183.88Z" fill="white"/>
<path d="M208.134 219.579C208.134 270.299 291.858 368.841 202.846 298.558C189.704 298.558 161 229.514 161 197.5C161 153 172 105.5 208.134 165.236C221.276 165.236 208.134 187.565 208.134 219.579Z" fill="#D9D9D9"/>
<path d="M244.8 222.539C221.886 279.78 435 317 274.765 322.53C261.631 322.983 221.886 262.523 221.886 230.509C217.479 219.968 200.812 161.674 213.954 161.674C244.8 157.327 264.394 173.59 244.8 222.539Z" fill="#D9D9D9"/>
<path d="M319.919 118.966C319.919 150.58 290.602 168.237 251.177 168.237C211.751 168.237 175.384 171.593 175.384 139.979C188 111 209.5 63 243.5 63C282.926 63 319.919 87.3527 319.919 118.966Z" fill="#D9D9D9"/>
<path d="M315.33 117.53C315.33 144.467 291.376 159.512 259.163 159.512C226.949 159.512 197.234 162.371 197.234 135.434C197.234 108.498 206.787 75.5487 239 75.5487C271.213 75.5487 315.33 90.5939 315.33 117.53Z" fill="white"/>
<path d="M281.797 271.12C270.737 216.448 160.782 192.558 211.007 182.397C261.233 172.237 310.914 208.32 321.974 262.992C333.034 317.663 301.284 370.22 251.059 380.381C200.834 390.541 292.856 325.791 281.797 271.12Z" fill="#232323"/>
</svg>
